<svg width="20" height="18" viewBox="0 0 20 18" fill="none" xmlns="http://www.w3.org/2000/svg">
<g id="vuesax/outline/search-normal">
<g id="search-normal">
<path id="Vector" d="M9.94833 16.3125C5.45401 16.3125 1.79492 12.8625 1.79492 8.625C1.79492 4.3875 5.45401 0.9375 9.94833 0.9375C14.4426 0.9375 18.1017 4.3875 18.1017 8.625C18.1017 12.8625 14.4426 16.3125 9.94833 16.3125ZM9.94833 2.0625C6.10629 2.0625 2.9881 5.01 2.9881 8.625C2.9881 12.24 6.10629 15.1875 9.94833 15.1875C13.7904 15.1875 16.9086 12.24 16.9086 8.625C16.9086 5.01 13.7904 2.0625 9.94833 2.0625Z" fill="#A1A5B7"/>
<path id="Vector_2" d="M18.3007 17.0625C18.1496 17.0625 17.9985 17.01 17.8792 16.8975L16.2882 15.3975C16.0576 15.18 16.0576 14.82 16.2882 14.6025C16.5189 14.385 16.9007 14.385 17.1314 14.6025L18.7223 16.1025C18.953 16.32 18.953 16.68 18.7223 16.8975C18.603 17.01 18.4519 17.0625 18.3007 17.0625Z" fill="#E3E4E9"/>
</g>
</g>
</svg>
